<?xml version="1.0" standalone="no"?>
<!DOCTYPE svg PUBLIC "-//W3C//DTD SVG 20010904//EN"
 "http://www.w3.org/TR/2001/REC-SVG-20010904/DTD/svg10.dtd">
<svg version="1.0" xmlns="http://www.w3.org/2000/svg"
 width="690.000000pt" height="1280.000000pt" viewBox="0 0 690.000000 1280.000000"
 preserveAspectRatio="xMidYMid meet">
<metadata>
Created by potrace 1.15, written by Peter Selinger 2001-2017
</metadata>
<g transform="translate(0.000000,1280.000000) scale(0.100000,-0.100000)"
fill="#5c5757" stroke="none">
<path d="M1416 12789 c-115 -17 -177 -40 -223 -84 l-43 -42 0 -84 c0 -79 -3
-91 -41 -170 -47 -94 -46 -87 -53 -420 l-4 -195 36 -24 35 -25 -7 -210 c-4
-115 -15 -388 -26 -605 -10 -217 -24 -519 -30 -670 -19 -469 -29 -527 -116
-662 -63 -99 -123 -172 -313 -383 -267 -296 -335 -387 -441 -596 -99 -194
-158 -399 -180 -631 -7 -68 -10 -1376 -8 -3858 l3 -3755 22 -66 c28 -80 86
-150 144 -173 46 -19 255 -57 444 -81 480 -61 1055 -70 1700 -25 77 5 250 16
385 25 430 27 555 57 643 154 74 82 67 -279 67 3916 0 2247 -4 3816 -10 3885
-17 216 -61 381 -150 568 -94 198 -203 346 -450 612 -84 91 -176 194 -205 230
-82 100 -160 231 -195 328 -32 84 -33 95 -41 302 -5 118 -11 350 -14 515 -2
165 -9 338 -14 385 -6 47 -15 209 -21 360 -5 151 -13 308 -16 349 l-6 74 38
32 38 32 -3 229 c-2 250 -6 274 -50 382 -32 77 -37 101 -45 195 -3 31 -11 66
-19 77 -43 62 -135 95 -301 110 -132 12 -447 11 -530 -1z"/>
<path d="M5010 7194 c-25 -2 -144 -8 -265 -14 -227 -12 -366 -30 -422 -57 -39
-18 -69 -75 -93 -181 -10 -42 -38 -157 -63 -255 -87 -335 -127 -644 -127 -972
0 -676 167 -1211 502 -1610 42 -49 102 -113 134 -141 95 -82 348 -272 421
-316 78 -46 113 -76 113 -94 0 -8 -9 -32 -21 -54 -32 -60 -21 -98 48 -163 86
-84 86 -80 91 -617 5 -613 -12 -1087 -58 -1610 -24 -266 -26 -277 -55 -402
-14 -57 -21 -112 -18 -135 l5 -38 -83 -18 c-264 -57 -381 -79 -538 -102 -342
-49 -495 -106 -477 -178 11 -45 166 -111 330 -142 221 -41 459 -57 941 -62
418 -4 501 -2 745 17 292 22 432 41 508 66 165 56 227 120 170 175 -52 49
-167 81 -483 134 -115 19 -293 52 -395 72 l-185 38 3 65 c2 44 -5 101 -22 175
-23 103 -49 346 -76 700 -43 594 -43 1414 1 1740 9 69 15 84 40 106 46 40 79
90 79 118 0 14 -7 47 -17 73 -21 58 -18 62 92 133 152 98 361 263 443 349 199
211 394 518 480 756 105 293 136 491 136 875 0 282 -7 388 -45 645 -44 294
-154 761 -194 822 -31 47 -99 73 -226 87 -89 10 -1322 23 -1419 15z"/>
</g>
</svg>
