<?xml version="1.0" standalone="no"?>
<!DOCTYPE svg PUBLIC "-//W3C//DTD SVG 20010904//EN"
 "http://www.w3.org/TR/2001/REC-SVG-20010904/DTD/svg10.dtd">
<svg version="1.0" xmlns="http://www.w3.org/2000/svg"
 width="689.000000pt" height="1280.000000pt" viewBox="0 0 689.000000 1280.000000"
 preserveAspectRatio="xMidYMid meet">
<metadata>
Created by potrace 1.15, written by Peter Selinger 2001-2017
</metadata>
<g transform="translate(0.000000,1280.000000) scale(0.100000,-0.100000)"
fill="#d13333" stroke="none">
<path d="M1415 12790 c-133 -16 -222 -56 -249 -114 -10 -22 -16 -60 -16 -109
0 -68 -4 -84 -42 -163 l-43 -89 -6 -250 -7 -250 34 -30 34 -30 0 -135 c0 -74
-5 -225 -10 -335 -5 -110 -16 -339 -24 -510 -8 -170 -20 -431 -26 -580 -12
-304 -23 -405 -51 -481 -41 -108 -154 -258 -384 -509 -186 -202 -277 -317
-373 -473 -130 -210 -161 -284 -201 -477 -48 -239 -46 -32 -46 -4080 0 -3629
1 -3812 18 -3861 28 -80 70 -139 121 -169 50 -29 201 -58 506 -94 320 -39 473
-46 920 -45 334 0 506 5 740 22 168 11 373 24 455 27 256 11 437 49 527 112
47 32 62 53 89 123 19 50 19 109 19 3827 0 2500 -4 3816 -10 3897 -22 251 -84
452 -206 669 -95 167 -174 266 -458 573 -199 215 -304 373 -356 539 -20 63
-23 105 -32 395 -11 385 -12 448 -8 560 1 47 -2 139 -9 205 -14 148 -42 780
-35 799 3 7 16 18 30 25 13 6 28 21 32 33 5 13 5 131 2 263 l-7 240 -38 85
c-27 61 -40 107 -46 161 -12 126 -42 162 -164 200 -107 33 -505 50 -680 29z"/>
<path d="M5080 7180 c-463 -20 -664 -39 -742 -69 -38 -14 -64 -60 -83 -150
-10 -42 -32 -130 -50 -196 -103 -376 -145 -683 -145 -1055 0 -395 51 -709 167
-1034 75 -210 232 -462 387 -623 100 -105 392 -336 501 -398 62 -35 115 -84
115 -106 0 -9 -9 -36 -19 -60 -27 -61 -18 -89 44 -147 93 -85 90 -57 90 -827
0 -623 -9 -912 -35 -1210 -6 -60 -15 -162 -20 -225 -18 -206 -31 -294 -56
-388 -21 -78 -23 -98 -14 -133 6 -23 10 -42 8 -43 -12 -10 -470 -101 -598
-120 -58 -9 -152 -23 -210 -32 -136 -20 -196 -38 -254 -74 -69 -44 -62 -64 41
-116 120 -60 238 -84 568 -114 320 -29 1100 -30 1400 -1 61 6 160 16 220 22
192 19 340 66 400 129 23 24 25 31 16 49 -13 24 -74 57 -140 76 -44 13 -76 19
-276 50 -121 19 -299 51 -415 74 -52 11 -134 27 -182 37 -86 17 -87 18 -80 43
12 45 5 153 -16 236 -19 76 -29 156 -52 415 -45 513 -53 707 -54 1215 0 463 8
645 36 823 10 69 14 76 59 119 58 55 65 81 43 144 -26 70 -14 94 73 149 348
221 510 375 713 678 277 413 382 816 366 1402 -6 228 -21 388 -56 605 -42 264
-139 676 -174 740 -45 85 -134 101 -586 110 -695 12 -815 13 -990 5z"/>
</g>
</svg>
