<?xml version="1.0" standalone="no"?>
<!DOCTYPE svg PUBLIC "-//W3C//DTD SVG 20010904//EN"
 "http://www.w3.org/TR/2001/REC-SVG-20010904/DTD/svg10.dtd">
<svg version="1.0" xmlns="http://www.w3.org/2000/svg"
 width="744.000000pt" height="1280.000000pt" viewBox="0 0 744.000000 1280.000000"
 preserveAspectRatio="xMidYMid meet">
<metadata>
Created by potrace 1.15, written by Peter Selinger 2001-2017
</metadata>
<g transform="translate(0.000000,1280.000000) scale(0.100000,-0.100000)"
fill="#7a2424" stroke="none">
<path d="M1857 11866 l-1857 -931 0 -4535 0 -4535 1860 -930 1860 -930 1860
930 1860 930 0 4535 0 4535 -1857 930 c-1022 511 -1860 930 -1863 931 -3 0
-841 -418 -1863 -930z m-916 -1540 c316 -156 1084 -536 1708 -845 623 -308
1137 -561 1142 -561 4 0 745 365 1645 810 900 446 1640 810 1645 810 5 0 9
-1808 9 -4228 l0 -4227 -1685 -843 -1685 -842 -355 177 -355 178 0 750 0 750
-878 440 c-482 242 -880 441 -884 443 -5 2 -8 -334 -8 -747 l0 -751 -445 222
-445 223 0 4262 c0 2345 4 4263 8 4263 5 0 267 -128 583 -284z m1194 -8028
l525 -263 0 -507 c0 -280 -2 -508 -5 -508 -3 0 -244 119 -535 265 l-530 265 0
505 c0 329 3 505 10 505 5 0 246 -118 535 -262z"/>
<path d="M711 9143 l1 -728 521 -260 c287 -143 525 -261 529 -263 5 -2 8 324
7 725 l-1 728 -521 260 c-287 143 -525 262 -529 263 -4 2 -8 -324 -7 -725z
m530 68 l174 -90 3 -331 c1 -183 -1 -330 -5 -328 -5 2 -86 43 -180 91 l-173
87 0 330 c0 182 2 330 4 330 2 0 81 -40 177 -89z"/>
<path d="M6193 9606 l-521 -261 -1 -728 c-1 -401 2 -727 7 -725 4 2 242 120
529 263 l521 260 1 728 c1 400 -2 726 -6 726 -5 -1 -243 -119 -530 -263z m187
-636 l0 -330 -172 -87 c-95 -48 -176 -89 -181 -91 -4 -2 -6 145 -5 328 l3 331
170 89 c94 48 173 89 178 89 4 1 7 -147 7 -329z"/>
<path d="M2480 8261 l0 -726 530 -266 530 -266 0 726 0 726 -530 266 -530 266
0 -726z m534 62 l176 -87 0 -328 c0 -180 -2 -328 -5 -328 -3 0 -84 39 -180 87
l-175 88 0 327 c0 181 2 328 4 328 3 0 84 -39 180 -87z"/>
<path d="M4428 8721 l-528 -266 0 -726 0 -726 530 266 530 266 0 728 c0 400
-1 726 -2 726 -2 -1 -240 -121 -530 -268z m182 -639 l0 -327 -175 -88 c-96
-48 -177 -87 -180 -87 -3 0 -5 148 -5 328 l0 328 173 86 c94 48 175 87 180 87
4 1 7 -146 7 -327z"/>
<path d="M710 7021 l0 -726 530 -266 530 -267 0 727 0 726 -530 266 -530 266
0 -726z m535 62 l175 -88 0 -327 c0 -215 -4 -328 -10 -328 -6 0 -87 38 -180
85 l-170 85 0 330 c0 182 2 330 5 330 3 0 84 -39 180 -87z"/>
<path d="M6198 7481 l-528 -266 0 -726 0 -727 530 267 530 266 0 728 c0 400
-1 726 -2 726 -2 -1 -240 -121 -530 -268z m182 -641 l0 -330 -170 -85 c-93
-47 -174 -85 -180 -85 -6 0 -10 113 -10 328 l0 327 173 87 c94 48 175 87 180
87 4 1 7 -147 7 -329z"/>
<path d="M2481 6133 l1 -728 521 -260 c286 -143 525 -261 529 -263 4 -2 8 324
7 725 l-1 728 -521 260 c-287 143 -525 262 -529 263 -5 2 -8 -324 -7 -725z
m709 -353 c0 -182 -3 -330 -7 -330 -5 1 -84 40 -178 88 l-170 87 -3 333 -2
332 180 -90 180 -90 0 -330z"/>
<path d="M4423 6596 l-521 -261 -1 -728 c-1 -401 3 -727 7 -725 4 2 243 120
529 263 l521 260 1 728 c1 400 -2 726 -6 726 -5 -1 -243 -119 -530 -263z m183
-963 c-4 -10 -335 -183 -351 -183 -3 0 -5 148 -5 330 l0 330 178 89 177 89 3
-322 c1 -176 0 -326 -2 -333z"/>
<path d="M710 4893 l1 -728 276 -135 c152 -74 390 -194 530 -266 l253 -131 -1
731 -1 731 -521 260 c-287 143 -525 261 -529 263 -5 2 -8 -324 -8 -725z m710
-353 c0 -182 -2 -330 -5 -330 -3 0 -84 39 -180 87 l-175 88 0 332 0 333 180
-90 180 -90 0 -330z"/>
<path d="M6193 5356 l-521 -261 -1 -731 -1 -731 253 131 c140 72 378 192 530
266 l276 135 1 728 c0 400 -3 726 -7 725 -5 0 -243 -118 -530 -262z m187 -639
l0 -332 -175 -88 c-96 -48 -177 -87 -180 -87 -3 0 -5 148 -5 330 l0 330 178
89 c97 50 178 90 180 90 1 1 2 -149 2 -332z"/>
<path d="M2480 4006 l0 -731 58 -24 c31 -13 270 -131 530 -262 l472 -238 0
727 0 727 -530 266 -530 265 0 -730z m535 67 l175 -88 0 -332 0 -333 -180 90
-180 90 0 330 c0 182 2 330 5 330 3 0 84 -39 180 -87z"/>
<path d="M4428 4471 l-528 -266 0 -727 0 -727 473 238 c259 131 498 249 529
262 l58 24 0 733 c0 402 -1 731 -2 731 -2 -1 -240 -122 -530 -268z m182 -641
l0 -330 -180 -90 -180 -90 0 333 0 332 173 87 c94 48 175 87 180 87 4 1 7
-147 7 -329z"/>
</g>
</svg>
