<?xml version="1.0" standalone="no"?>
<!DOCTYPE svg PUBLIC "-//W3C//DTD SVG 20010904//EN"
 "http://www.w3.org/TR/2001/REC-SVG-20010904/DTD/svg10.dtd">
<svg version="1.0" xmlns="http://www.w3.org/2000/svg"
 width="989.000000pt" height="1280.000000pt" viewBox="0 0 989.000000 1280.000000"
 preserveAspectRatio="xMidYMid meet">
<metadata>
Created by potrace 1.15, written by Peter Selinger 2001-2017
</metadata>
<g transform="translate(0.000000,1280.000000) scale(0.100000,-0.100000)"
fill="#5c5757" stroke="none">
<path d="M7724 12790 c-152 -28 -414 -144 -562 -250 l-79 -57 -109 44 c-227
91 -460 158 -644 184 -49 7 -187 12 -325 12 -437 0 -696 -37 -2003 -284 -625
-118 -898 -197 -1188 -342 -162 -81 -285 -168 -412 -291 -174 -168 -294 -327
-381 -504 -98 -197 -136 -361 -186 -807 -48 -423 -86 -661 -146 -897 -30 -122
-160 -547 -184 -605 l-14 -33 -83 0 c-145 0 -249 -38 -370 -136 -257 -208
-455 -729 -520 -1372 -14 -133 -18 -1267 -8 -2237 4 -497 4 -510 -51 -1015
-48 -450 -153 -991 -289 -1495 -58 -216 -104 -421 -135 -600 -20 -113 -37
-437 -26 -468 5 -12 19 -31 32 -43 28 -24 164 -86 264 -121 192 -66 929 -268
1686 -462 676 -173 843 -220 1329 -371 503 -156 1162 -346 1437 -414 496 -122
939 -195 1318 -216 578 -32 1174 15 1559 121 325 90 618 222 852 385 187 129
246 206 263 341 5 38 16 84 25 104 8 20 23 78 32 130 9 52 28 115 41 142 13
26 77 114 142 195 306 382 460 637 517 859 22 85 25 112 20 203 -5 110 -29
210 -70 305 -37 83 -83 252 -113 410 -24 133 -25 152 -20 395 5 266 14 344 72
601 36 161 53 291 70 544 9 127 18 237 21 246 3 11 -10 20 -51 33 -35 11 -55
23 -55 32 0 18 78 390 180 854 89 405 199 958 239 1195 71 419 85 603 86 1085
0 622 -35 871 -220 1575 -129 490 -204 731 -272 875 l-45 95 16 110 c51 366
85 732 86 933 0 122 0 122 -24 122 -14 0 -26 7 -29 18 -19 60 -123 294 -152
342 -74 122 -185 188 -377 226 -72 14 -84 19 -84 36 1 17 -27 29 -189 83 -104
34 -239 81 -299 104 -60 23 -145 51 -190 62 -93 22 -304 33 -382 19z m304
-332 c34 -5 62 -13 62 -17 0 -3 -64 -22 -142 -42 -155 -40 -288 -88 -328 -119
l-25 -19 24 -25 c14 -14 23 -28 20 -30 -4 -3 -203 105 -215 117 -8 7 140 82
226 114 111 42 222 48 378 21z m-1690 -73 c99 -16 154 -30 283 -69 l86 -26
118 -136 c64 -74 195 -216 290 -314 265 -274 364 -419 569 -830 175 -352 385
-848 451 -1067 75 -247 94 -490 76 -953 -23 -556 -70 -911 -186 -1400 -24
-102 -67 -282 -95 -400 -28 -118 -53 -222 -56 -230 -3 -8 -24 24 -50 80 -128
269 -311 464 -584 623 -86 50 -225 88 -340 94 -63 3 -141 14 -195 29 -181 48
-375 76 -955 139 -860 94 -1282 160 -1940 306 -511 113 -624 144 -1150 309
-410 129 -880 302 -880 323 0 2 16 50 35 108 179 528 246 842 320 1509 59 530
119 694 355 974 131 155 297 282 486 371 291 137 557 206 1344 349 135 25 355
65 490 90 590 109 948 149 1272 140 91 -3 207 -11 256 -19z m2542 -236 c100
-32 96 -27 216 -308 l57 -133 -7 -137 c-4 -75 -18 -214 -30 -310 l-21 -174
-30 39 c-16 21 -95 107 -175 189 -81 83 -179 190 -219 238 l-73 88 11 47 c11
46 40 238 63 412 l12 86 65 -8 c36 -4 95 -17 131 -29z m-513 -31 c-6 -63 -46
-331 -50 -334 -3 -4 -206 121 -317 196 -113 75 -104 69 -99 75 7 6 429 113
453 114 16 1 18 -5 13 -51z m-757 -268 c69 -40 178 -109 243 -152 147 -98 534
-333 564 -342 11 -4 34 -23 49 -44 15 -20 96 -107 179 -192 172 -177 220 -233
332 -381 150 -201 199 -326 367 -939 191 -701 233 -955 243 -1480 13 -728 -28
-1012 -391 -2680 -41 -190 -102 -489 -136 -665 -34 -176 -120 -619 -191 -985
-214 -1087 -229 -1172 -373 -2080 -57 -353 -96 -716 -96 -891 0 -36 -3 -94 -6
-128 l-7 -61 -106 -71 c-230 -154 -559 -287 -875 -354 l-109 -23 7 116 c11
188 34 424 76 772 51 418 75 665 100 1030 79 1150 129 1652 245 2480 30 212
61 439 70 505 9 66 36 188 60 270 61 208 105 388 175 710 62 288 117 526 250
1080 119 498 174 805 204 1150 28 312 39 604 33 895 -6 306 -17 393 -84 623
-89 313 -425 1080 -631 1442 -73 129 -205 324 -273 404 -35 41 -59 72 -54 69
6 -3 66 -38 135 -78z m-5960 -3283 c197 -90 522 -208 905 -329 507 -159 686
-207 1180 -317 713 -157 1120 -221 2135 -331 500 -55 729 -94 819 -139 85 -44
93 -132 42 -453 -34 -216 -81 -691 -136 -1378 -44 -544 -87 -919 -136 -1170
-11 -58 -58 -267 -104 -465 -195 -839 -216 -938 -309 -1502 -138 -826 -174
-1136 -222 -1868 -9 -143 -17 -261 -18 -262 -3 -3 -315 44 -446 68 -180 32
-542 115 -739 169 -279 77 -916 262 -1131 330 -520 164 -711 217 -1540 430
-1001 257 -1587 423 -1624 460 -18 18 -19 25 -7 129 16 153 71 415 141 681 71
268 114 455 169 725 84 421 111 618 171 1270 7 74 10 287 8 555 -8 1076 -3
2155 10 2280 54 504 215 962 391 1109 79 67 123 82 216 78 74 -3 91 -8 225
-70z m5529 -1240 c232 -145 388 -374 456 -668 43 -189 39 -318 -20 -624 -51
-265 -79 -439 -134 -840 -28 -198 -59 -423 -70 -500 -90 -634 -155 -1293 -216
-2195 -37 -549 -55 -731 -120 -1262 -19 -156 -46 -420 -61 -588 -14 -168 -26
-306 -27 -306 -1 -1 -82 -7 -180 -13 -197 -12 -540 -15 -637 -4 l-63 6 7 121
c41 737 86 1127 222 1949 90 544 124 713 259 1292 168 720 173 748 219 1105
32 244 49 418 81 830 46 590 95 1082 131 1320 22 143 36 275 36 338 1 120 -8
116 117 39z m1863 -4137 c3 -34 1 -40 -15 -40 -16 0 -18 5 -13 31 3 17 6 38 6
46 0 31 18 1 22 -37z m23 -390 c69 -43 120 -123 149 -236 20 -77 20 -124 1
-199 -35 -135 -189 -394 -370 -620 l-88 -110 7 55 c10 82 172 1085 182 1126 5
20 9 21 47 12 23 -5 55 -18 72 -28z"/>
<path d="M1063 6592 c-24 -77 -45 -146 -48 -154 -5 -12 16 -23 85 -48 63 -23
89 -37 86 -46 -3 -7 -11 -81 -17 -163 -11 -137 -11 -152 5 -176 54 -83 157
-39 192 83 13 45 15 71 7 129 -5 40 -6 73 -2 73 4 0 119 -41 255 -91 137 -49
301 -106 364 -125 186 -57 651 -170 899 -218 522 -103 1471 -244 2261 -336
146 -17 343 -40 438 -51 96 -11 176 -18 179 -15 12 12 39 308 28 312 -5 1
-113 15 -240 29 -997 113 -2013 259 -2615 376 -113 22 -313 67 -445 100 -425
106 -427 107 -1225 401 -74 27 -142 52 -150 54 -12 4 -25 -26 -57 -134z"/>
</g>
</svg>
