<?xml version="1.0" standalone="no"?>
<!DOCTYPE svg PUBLIC "-//W3C//DTD SVG 20010904//EN"
 "http://www.w3.org/TR/2001/REC-SVG-20010904/DTD/svg10.dtd">
<svg version="1.0" xmlns="http://www.w3.org/2000/svg"
 width="1280.000000pt" height="849.000000pt" viewBox="0 0 1280.000000 849.000000"
 preserveAspectRatio="xMidYMid meet">
<metadata>
Created by potrace 1.15, written by Peter Selinger 2001-2017
</metadata>
<g transform="translate(0.000000,849.000000) scale(0.100000,-0.100000)"
fill="#5c5757" stroke="none">
<path d="M6362 8476 c-300 -57 -574 -234 -727 -470 -225 -345 -243 -705 -53
-1067 150 -287 419 -486 748 -555 110 -22 316 -22 420 0 399 87 697 346 820
714 81 242 82 395 5 642 -114 362 -429 642 -819 726 -100 22 -304 27 -394 10z"/>
<path d="M5073 6525 c-117 -32 -433 -272 -633 -481 -198 -208 -298 -331 -700
-869 -307 -411 -512 -671 -965 -1225 -362 -443 -446 -550 -793 -1011 -175
-233 -372 -494 -437 -580 l-120 -156 -74 -7 c-41 -3 -118 -6 -173 -6 l-98 0 0
878 -1 877 -23 26 -22 26 -325 7 c-294 6 -600 -3 -682 -20 l-27 -6 0 -1964 0
-1964 540 0 540 0 0 912 0 911 1053 -5 c578 -4 1502 -2 2052 2 550 5 1001 8
1002 7 1 -1 11 -108 22 -237 52 -580 90 -825 177 -1127 54 -188 67 -215 148
-301 113 -119 243 -175 353 -153 128 25 239 106 312 225 136 225 231 796 231
1392 l0 204 124 0 124 0 6 -127 c32 -641 73 -934 176 -1242 86 -257 144 -342
273 -406 77 -38 187 -61 240 -51 111 21 242 126 305 244 57 107 124 420 157
732 8 80 20 305 26 500 6 195 11 355 12 356 1 1 867 4 1925 8 l1922 6 0 -950
0 -950 540 0 540 0 -1 1913 c-1 1384 -4 1930 -13 1977 l-11 65 -385 3 c-212 2
-449 0 -527 -3 l-143 -7 0 -854 0 -854 -54 0 c-30 0 -66 4 -79 9 -15 6 -172
209 -432 558 -494 663 -575 767 -915 1183 -426 520 -508 626 -921 1185 -384
521 -566 742 -796 966 -176 171 -283 256 -449 353 l-79 46 -85 -5 c-106 -8
-186 -23 -223 -42 -51 -26 -108 -188 -127 -361 -29 -257 87 -576 312 -859 149
-188 178 -215 1448 -1344 874 -776 1367 -1224 1727 -1569 l122 -117 -316 -6
c-174 -4 -916 -7 -1649 -7 l-1333 0 -5 33 c-3 17 -7 137 -11 265 -11 456 -59
1243 -87 1427 -35 235 -146 444 -260 490 -49 19 -149 21 -208 4 -83 -25 -249
-229 -359 -444 -82 -159 -191 -402 -227 -505 -63 -183 -83 -405 -65 -710 7
-102 14 -272 18 -378 l6 -192 -126 0 -127 0 -1 93 c-10 929 -19 1310 -33 1392
-25 148 -63 262 -133 400 -36 72 -102 211 -147 310 -134 295 -223 429 -357
536 -78 63 -133 83 -208 76 -185 -16 -298 -182 -356 -522 -28 -167 -40 -877
-26 -1559 7 -329 15 -627 18 -661 l6 -63 -139 -6 c-77 -3 -827 -9 -1669 -12
l-1530 -6 115 108 c63 60 178 170 255 244 231 222 332 313 1530 1371 691 611
1202 1070 1281 1151 134 138 258 294 330 415 121 202 183 443 162 623 -8 72
-71 329 -88 360 -9 17 -102 45 -195 60 -77 13 -98 12 -162 -5z"/>
</g>
</svg>
